<svg width="270" height="265" viewBox="0 0 270 265" fill="none" xmlns="http://www.w3.org/2000/svg">
<path d="M46.3306 0.642563C48.2937 -0.128941 51.0436 0.0731438 53.2638 0.0547747L166.641 0.0609037L201.547 0.0118715C221.303 0.00574848 238.84 -0.888168 253.915 14.1439C260.52 20.7323 266.264 31.1231 268.491 40.1423C269.589 44.5877 269.177 56.0378 269.175 60.9607L268.997 96.4377L268.552 210.228C268.463 226.02 265.272 238.284 253.704 250.083C246.646 257.29 233.499 263.523 223.295 263.34C220.826 264.142 219.673 263.97 217.089 263.989L103.425 263.952L68.9449 263.995C47.9704 264.007 31.8331 265.219 15.4362 249.973C10.5072 245.393 1.93856 230.514 1.39483 224.024C0.247371 210.314 0.78498 195.533 0.636802 181.701L0 57.0603C0.0293906 39.4688 2.19389 28.1473 15.1509 14.6889C22.4061 7.15752 35.6667 0.489487 46.3306 0.642563Z" fill="black"/>
<path d="M158.277 86.0529C162.986 76.9908 172.208 70.0596 181.869 66.9675C192.708 63.5141 204.485 64.5916 214.514 69.9616C222.823 74.3763 232.152 83.8426 234.31 93.2231C240.69 109.688 234.88 125.094 223.689 137.603C224.322 138.968 224.925 140.352 225.497 141.748C235.302 166.008 212.027 182.393 192.253 189.52C154.25 203.126 108.794 203.009 71.584 186.759C50.7945 177.678 34.7153 161.642 46.2934 137.731C34.062 123.33 28.7974 106.841 37.573 89.0104C41.0111 80.1626 49.3433 72.6986 57.9131 68.8533C68.4178 64.1263 80.3792 63.8079 91.1209 67.9716C100.941 71.7434 108.868 79.2564 113.169 88.8573C113.504 89.6227 114.144 91.1902 114.254 91.974C115.229 94.0864 115.943 97.0622 116.583 99.3583C129.492 96.7193 140.446 97.6194 153.239 99.2359C154.504 94.1476 155.48 90.5534 158.277 86.0529Z" fill="#69C242"/>
<path d="M158.277 86.0529C162.986 76.9908 172.208 70.0596 181.869 66.9675C192.708 63.5141 204.485 64.5916 214.514 69.9616C222.823 74.3763 232.152 83.8426 234.31 93.2231C234.201 95.4947 234.088 96.2785 234.514 98.5685C232.041 100.167 229.323 102.334 226.543 102.708C224.099 100.363 226.609 96.4927 223.459 96.4499C228.269 109.602 223.58 124.347 212.056 132.3C200.532 140.254 185.086 139.415 174.492 130.261C163.899 121.101 160.835 105.941 167.04 93.3883C165.559 94.1415 164.669 95.5865 163.437 96.8479C160.258 95.6906 159.725 95.5927 156.32 95.4947L155.516 95.4825C156.76 92.176 157.894 89.6043 158.277 86.0529Z" fill="black"/>
<path d="M158.277 86.0529C162.986 76.9908 172.208 70.0596 181.869 66.9675C192.708 63.5141 204.485 64.5916 214.514 69.9616C222.823 74.3763 232.152 83.8426 234.31 93.2231C234.201 95.4947 234.088 96.2785 234.514 98.5685C232.041 100.167 229.323 102.334 226.543 102.708C224.099 100.363 226.609 96.4927 223.459 96.4499C219.237 84.9018 208.539 76.9847 196.261 76.3173C183.983 75.6499 172.49 82.3607 167.04 93.3883C165.559 94.1415 164.669 95.5865 163.437 96.8479C160.258 95.6906 159.725 95.5927 156.32 95.4947L155.516 95.4825C156.76 92.176 157.894 89.6043 158.277 86.0529Z" fill="#69C242"/>
<path d="M193.345 83.5364C202.66 82.9669 211.419 88.0001 215.621 96.3336C219.824 104.667 218.665 114.703 212.673 121.854C205.833 130.023 194.333 132.533 184.713 127.947C175.095 123.367 169.794 112.86 171.826 102.402C173.859 91.9372 182.709 84.1793 193.345 83.5364Z" fill="black"/>
<path d="M212.673 121.854C205.833 130.023 194.333 132.533 184.713 127.947C175.095 123.367 169.794 112.86 171.826 102.402C173.859 91.9372 182.709 84.1793 193.345 83.5364C193.336 86.1203 193.16 86.8245 194.694 88.8512C186.335 88.839 179.054 94.5517 177.079 102.671C175.103 110.796 178.946 119.215 186.378 123.042C193.809 126.869 202.895 125.112 208.362 118.793C209.92 120.042 210.886 121.034 212.673 121.854Z" fill="#69C242" fill-opacity="0.2"/>
<path d="M193.344 83.5364C202.66 82.9669 211.418 88.0001 215.621 96.3336C219.824 104.667 218.665 114.703 212.673 121.854C210.886 121.034 209.92 120.042 208.362 118.793C212.992 113.435 214.075 105.873 211.136 99.4318C208.196 92.9965 201.773 88.8574 194.694 88.8512C193.16 86.8245 193.336 86.1203 193.344 83.5364Z" fill="#69C242"/>
<path d="M37.573 89.0104C41.0111 80.1626 49.3433 72.6986 57.9131 68.8533C68.4178 64.1263 80.3792 63.8079 91.1209 67.9715C100.941 71.7433 108.868 79.2564 113.169 88.8573C113.504 89.6227 114.144 91.1902 114.254 91.9739C114.207 94.5089 114.237 95.2742 114.595 97.7724C113.487 100.081 110.475 100.669 107.442 103.24C106.632 100.822 106.465 99.2726 104.59 97.6623C108.783 110.778 103.699 125.075 92.1679 132.6C80.637 140.126 65.4996 139.023 55.1847 129.9C44.8692 120.783 41.9173 105.892 47.9724 93.5292L46.7704 93.9027C46.0944 95.1151 45.8563 95.5743 45.4154 96.854L45.0676 97.8827L44.2073 98.2929C39.0468 93.174 36.9001 98.4705 37.573 89.0104Z" fill="black"/>
<path d="M37.573 89.0104C41.0111 80.1626 49.3433 72.6986 57.9131 68.8533C68.4178 64.1263 80.3792 63.8079 91.1209 67.9715C100.941 71.7433 108.868 79.2564 113.169 88.8573C113.504 89.6227 114.144 91.1902 114.254 91.9739C114.207 94.5089 114.237 95.2742 114.595 97.7724C113.487 100.081 110.475 100.669 107.442 103.24C106.632 100.822 106.465 99.2726 104.59 97.6623C100.787 85.7652 90.1345 77.3765 77.679 76.4703C65.2235 75.558 53.4648 82.3118 47.9724 93.5292L46.7704 93.9027C46.0944 95.1151 45.8563 95.5743 45.4154 96.854L45.0676 97.8827L44.2073 98.2929C39.0468 93.174 36.9001 98.4705 37.573 89.0104Z" fill="#69C242"/>
<path d="M73.3744 88.2388C78.3187 90.6084 76.5069 100.864 76.3918 105.94C80.5163 109.504 86.8144 112.786 89.0696 117.078C89.0096 119.619 89.1143 118.744 87.3049 121.156C81.7874 117.017 76.3312 112.798 70.9368 108.506C70.9208 102.554 69.2137 92.4882 73.3744 88.2388Z" fill="#69C242"/>
<path d="M84.203 159.921C112.703 171.861 140.46 177.182 170.63 165.965C174.883 164.385 183.238 159.897 187.44 161.434L188.078 162.842C187.752 165.175 188.196 164.097 186.338 165.995C185.957 166.173 185.575 166.338 185.191 166.51C153.862 180.232 124.602 181.989 92.2021 169.547C89.0935 168.353 83.3898 166.596 82.1812 163.822C82.6098 161.287 82.4059 162.132 84.203 159.921Z" fill="black"/>
<path d="M145.291 140.26C147.304 139.379 149.653 140.23 150.63 142.201C151.608 144.167 150.87 146.555 148.953 147.626C147.627 148.367 146 148.318 144.72 147.498C143.44 146.683 142.716 145.22 142.836 143.708C142.955 142.195 143.898 140.867 145.291 140.26Z" fill="black"/>
<path d="M121.452 140.242C123.472 139.33 125.85 140.187 126.82 142.183C127.79 144.173 127 146.579 125.037 147.608C123.714 148.3 122.12 148.214 120.874 147.394C119.629 146.567 118.93 145.134 119.05 143.646C119.17 142.158 120.091 140.854 121.452 140.242Z" fill="black"/>
</svg>
